<svg id="Layer_1" data-name="Layer 1" xmlns="http://www.w3.org/2000/svg" viewBox="0 0 363.66 401.89"><defs><style>.cls-1{fill:#a8822e;}</style></defs><path class="cls-1" d="M339,298.78c6.42,1.26,12.89,2.28,19.24,3.82,14.64,3.56,29.31,7,43.75,11.26,5.46,1.6,10.42,5,15.43,7.93,8,4.65,10.05,11.79,8.38,20.6-3.75,19.85-13.7,36.34-27.32,50.78-20,21.26-44.84,34.94-72.19,44.39a237.31,237.31,0,0,1-48.44,11.69,235.17,235.17,0,0,1-56.12,0c-32.29-3.76-62.2-14.74-89.82-31.52-24.17-14.69-43-34.76-54.28-61-2.72-6.29-3.8-13.34-5.2-20.13-1.08-5.21,1.52-9.29,5.44-12.49C87,316.7,97.82,312.6,109,309.79c15.61-3.94,31.47-6.89,47.22-10.28a6.26,6.26,0,0,0,3.57-2.08c-4.84-2.19-9.67-4.41-14.53-6.57-15.47-6.89-30.55-14.42-44.39-24.33-21.51-15.38-31.66-39.36-25.27-63.09,2.26-8.41,2.64-16.68,3-25.19,1.08-24.52,11.47-43.65,33.66-55.37,5.29-2.8,8.28-7.15,10.63-12.3a61.11,61.11,0,0,1,24.63-27.66,79.11,79.11,0,0,1,34.41-10.81,41.09,41.09,0,0,0,20.34-7.74c26.57-18.39,54.69-19.55,83.82-7a43.33,43.33,0,0,1,11.79,7.37c6.07,5.5,13.31,7.17,21,7.94,25.89,2.63,45.7,14.44,57.58,38.13A33.12,33.12,0,0,0,390,125.05c18,10.48,27.46,26.76,30.09,47.17,1.43,11.08,0,22.44,3.8,33.33a35.61,35.61,0,0,1,1.53,12.23c-.29,14.8-5.43,27.73-15.91,38.35-14.43,14.64-32.46,23.65-50.75,32.22-5.48,2.57-11.06,5-16.58,7.46-1.11.5-2.16,1.16-3.23,1.74C339,298,339,298.37,339,298.78ZM133.39,132.87c.32.48,1.17,1.92,2.16,3.26,7,9.58,14.16,19.12,21.14,28.74.69.94.64,2.41.93,3.63-1.15-.63-2.69-1-3.41-1.94-6.91-9.2-13.8-18.43-20.43-27.83-2.23-3.18-4.05-3.64-7.54-1.72-17.94,9.9-28.26,24.54-28.9,45.35-.14,4.52.65,9.11.13,13.56-.37,3.16.75,4.55,3,6.2,9,6.51,17.9,13.19,26.73,19.93,1,.74,1.32,2.29,2,3.47-1.17-.38-2.54-.5-3.48-1.19-4.07-3-7.92-6.26-12-9.19-5.73-4.1-11.62-8-17.75-12.17-5.08,12.21-3.92,23.28,3.46,32.92a94.16,94.16,0,0,0,17.76,17.69c14.63,11.06,29.88,21.31,44.89,31.87,3.22,2.26,6.54,4.38,9.81,6.57l1.09-.35c-5.68-24.57-3.09-47.68,11.51-68.58s34.75-32.69,60-34.43c19.67-1.35,38.16,3.59,53.51,16.53,27.06,22.84,36.14,52,27.9,87.58,3-1.75,4.93-2.7,6.66-3.93,15.19-10.76,30.54-21.31,45.43-32.46a133.17,133.17,0,0,0,20.11-18.12c7.52-8.51,10.7-18.71,6.73-30.17-1.46-4.22-2-4.66-5.53-2.15-9,6.31-18,12.63-26.67,19.34-9.32,7.18-18.28,14.81-27.45,22.17-.7.56-1.89.49-2.86.71a14.47,14.47,0,0,1,1.09-2.82,8.35,8.35,0,0,1,2-1.84c14.92-11.76,29.81-23.57,44.8-35.24,3.65-2.85,9.19-4.48,11-8.11,1.94-3.8.35-9.34.56-14.11A49.77,49.77,0,0,0,394,156.2c-6.1-9.52-15.1-15.37-25.47-21-6.64,8.35-13.63,16.64-20.06,25.34-9.22,12.47-18,25.27-27.08,37.85-.65.89-2.15,1.17-3.26,1.73.17-1,0-2.29.55-3q20.88-28.68,41.91-57.25c1.83-2.49,5.28-4.65,5.53-7.2s-2.63-5.32-4.13-8c-4-7.1-7.94-14.18-14.14-19.74-12.32-11.07-27.38-13.76-43.12-14.42a3.69,3.69,0,0,0-2.68,1.93c-.75,1.6-.74,3.54-1.41,5.19a38.65,38.65,0,0,1-2.69,4.76l-1.26-.62c.9-3.56,1.92-7.09,2.61-10.69.21-1.06-.15-2.92-.89-3.37-6.71-4.12-13.37-8.37-20.4-11.89-17.21-8.63-35-9.83-52.65-1.71-8.53,3.92-16.56,8.94-24.73,13.61-.63.36-1,2-.8,2.86.58,3,1.57,6,2.15,9,.2,1-.38,2.18-.61,3.27l-1.34-.08c-.67-2-1.36-4.06-2-6.11s-1.21-4.16-1.76-6.09C165.77,89.91,144.61,103.36,133.39,132.87Zm44.28,134.55c.07,43.89,33.23,72.62,72.8,72.19,42.08-.46,69.43-34.68,69-71.69-.51-38.55-33.82-71.3-72.56-71.06C209.68,197.09,177.36,230.05,177.67,267.42ZM91.05,340.65c4.49,4.4,9.57,6,14.73,6.91,9.14,1.6,18.35,2.9,27.59,3.84,7.08.72,13.85,2.42,19.78,6.17,13.18,8.35,27.44,9.25,42.2,6.82a70.65,70.65,0,0,1,36.58,3.07c11.7,4.26,23.67,5.14,35.54.14s24-5.24,36.52-3.14c12.88,2.15,25.37,1.65,37.3-4.83a71.59,71.59,0,0,1,18.28-7.14c9.16-2,18.67-2.45,27.93-4.12a90,90,0,0,0,16.26-4.79c3.71-1.42,3.88-3.28.95-6a25.65,25.65,0,0,0-7-4.81c-7.39-3.26-14.94-6.16-22.42-9.21,13,2.64,26.62,3.73,35.37,15.77,6-3.06,6.46-6.76,1.43-10.61a30.72,30.72,0,0,0-7.54-4.67c-8.2-3-16.38-6.48-24.88-8.25-17.16-3.59-34.52-6.17-51.8-9.16-6.61-1.14-7.94-.52-11.24,5.19-.64,1.1-1.17,2.27-1.86,3.63,1.33.38,2.42.68,3.5,1,8.27,2.42,16.63,4.58,24.76,7.41a25.78,25.78,0,0,1,8.6,5.73,6.23,6.23,0,0,1-.34,9.31,18.07,18.07,0,0,1-5.78,3.8c-5.81,2.07-11.65,4.34-17.68,5.41-9.51,1.69-19.17,2.63-28.79,3.6-15.29,1.54-30.57,3.42-45.9,4.12-22.66,1-45.19-1.4-67.57-4.7-10.82-1.59-21.69-3.58-31.57-8.67-3.51-1.82-7.78-3.8-7.65-8.45s3.74-7.39,7.59-9.07c5.89-2.57,12-4.73,18.07-6.74,3.69-1.22,7.58-1.84,11.71-2.8-1.16-2.15-2.12-3.67-2.85-5.29-1.44-3.26-3.57-4.59-7.32-3.91-19.91,3.62-39.93,6.71-59.76,10.7-9.84,2-19.43,5.44-27.54,11.75-1.5,1.17-3.09,3.58-2.91,5.24A5.64,5.64,0,0,0,88.06,339c9.71-12.09,23.31-13.15,36.36-15.49C113.09,328.33,100.57,330.83,91.05,340.65Zm257.34-59.16.92,1.21c5.24-2.4,10.52-4.71,15.72-7.2,14.17-6.78,27.72-14.52,38.37-26.41,11.15-12.44,16.07-26.85,11.85-43.29a103.34,103.34,0,0,1-3.06-23.69c-.5-21.79-8.86-39.29-28.39-50.42A34.8,34.8,0,0,1,369.39,116C358.81,94.16,340.71,83.16,317,81a47.89,47.89,0,0,1-24-8.64c-26.85-18.89-56.5-19.54-83-2.18a70.22,70.22,0,0,1-30.5,11c-19,2.44-35.68,10.18-45.19,27.62a69,69,0,0,1-24.46,26.36C94.9,144.67,88.05,160,87,177.56c-.61,10.54-1,20.87-3.76,31.33-4.08,15.39,1.71,29,12.19,40.56,10.72,11.81,24.42,19.35,38.62,26,5.51,2.59,11.16,4.87,16.74,7.29l.53-1a27.8,27.8,0,0,0-2.24-2c-8.74-6.2-17.77-12-26.18-18.67s-16.81-13.42-24-21.25c-7.84-8.57-11-19.51-7.81-31a85.61,85.61,0,0,0,3-22.86c.12-21.68,8.79-38.76,28.15-49.58a32.11,32.11,0,0,0,12.15-12.19c1.9-3.23,3.8-6.46,5.77-9.64,9.86-16,24.57-23.81,42.87-25.62,8.72-.86,17-2.79,24.35-8a95.78,95.78,0,0,1,13.44-7.67c17.12-8.28,34.76-9.75,52.42-2.18,8,3.44,15.56,8.07,23.13,12.49a39.6,39.6,0,0,0,17.94,5.39c21.28,1.31,37.31,11.2,47.31,30.15,4.39,8.32,9.89,15.16,18.27,19.9,10.12,5.74,16.9,14.69,21.12,25.48,3,7.7,3.66,15.8,3.47,24A53.38,53.38,0,0,0,407.24,208a31.35,31.35,0,0,1,1.37,11.75c-.55,11.29-6.25,20.27-14.67,27.19-10.05,8.28-20.75,15.8-31.16,23.65ZM83.53,347.28l-1.07,1.22c2,2,3.77,4.38,6,6.08,8.75,6.57,19,9.08,29.64,10.18,11.45,1.18,22.74,2.87,33.13,8.49,13.47,7.29,28,8,43,6.56,11.59-1.12,23.13-1.07,34.49,2.86,14.26,4.93,28.86,4.17,43-.33,10.42-3.31,20.78-3.56,31.38-2.32,14.77,1.74,29.26.94,42.64-6.11,11.38-6,23.53-8.13,36.1-9.17,10.32-.86,20-4,28.45-10.13,2.45-1.79,4.7-3.71,5.16-7.8-13.45,7.41-27.47,9.52-41.84,11-7.54.77-15.65,2.63-22.05,6.43-15.49,9.19-31.68,11.14-48.89,8.26-10.37-1.74-20.58-1.79-30.45,2.23a57.94,57.94,0,0,1-44.16.31A53.79,53.79,0,0,0,203,371.59c-5.15.52-10.26,1.36-15.41,1.78-12.15,1-24.08.3-34.88-6.18-8.46-5.07-17.58-7.75-27.3-9.14s-19.32-3.15-28.83-5.37C92.06,351.63,87.87,349.13,83.53,347.28Zm272.4,33.44-27.16,45.61c6.24-2.49,12.74-3.81,15.29-11.18a59.26,59.26,0,0,1,5.28-10.72c.65-1.08,2.55-1.42,3.88-2.1.3,1.56,1.21,3.33.77,4.64-.69,2-2.35,3.66-3.5,5.53-.81,1.32-1.46,2.74-2.18,4.12l1,.92c4.44-2.72,8.89-5.41,13.29-8.18,4.57-2.87,4.61-6.3.17-9.29a41.35,41.35,0,0,1-5.4-3.73c-.8-.76-.83-2.34-1.21-3.54,1.26,0,2.8-.56,3.74,0,3.24,1.84,6.25,4.08,9.4,6.1,4.24,2.72,6.16,2.36,9.69-1.7ZM120.28,397c4.13,4.32,5.14,4.57,9.65,1.92,3.11-1.83,6-4,9.15-5.78.94-.52,2.42-.06,3.66-.05-.41,1.32-.42,3.06-1.29,3.84a29.57,29.57,0,0,1-5.89,3.67c-2.95,1.56-3.06,4.38-1.35,6.13A36,36,0,0,0,150,415.86a66.33,66.33,0,0,0-4.58-8.46c-1-1.73-2.08-3.76.25-5s3.39.78,4.28,2.57c1.9,3.8,3.88,7.56,5.66,11.41,3,6.47,9.45,7,15.67,10.13l-28.47-45.23Zm62.55,13.67c6,2.41,11,2.63,15.44-2.36,2.39-2.7,5.33-4.9,8-7.34,2.51-2.31,4.63-2.08,6.9.53,3.56,4.1,7.53,7.85,11,12,3.94,4.75,8.84,4.64,13.91,4-2.25-2.47-4.38-4.87-6.59-7.21-6.29-6.69-12.65-13.31-18.89-20.05-1.61-1.73-2.91-2.16-4.85-.44-2.69,2.41-5.64,4.53-8.4,6.86C194,401.19,188.6,405.79,182.83,410.69Zm78.11,6.6c5.91,1.67,10.53.46,14.37-4.24,3.43-4.18,7.33-8,10.95-12,2.13-2.37,3.93-2.66,6.45-.25,3.54,3.37,7.44,6.38,11.3,9.39,3.6,2.8,7.54,2.62,11.49-.38-2.68-2.06-5.37-4-7.93-6.13q-8.18-6.81-16.23-13.76c-1.9-1.63-3.53-1.79-5.26.28s-3.78,4.22-5.71,6.29C274,403.36,267.56,410.21,260.94,417.29Zm48.26-17.87c4.73,3,8.78,5.66,12.88,8.22a2.34,2.34,0,0,0,1.8.31c3.95-1.56,8.1-2.81,11.71-5,5.05-3,5.2-6.3,1.19-10.37-1.82-1.84-3.59-3.73-5.5-5.47-2.48-2.26-5.49-2.78-8.07-.61C318.68,390.32,314.48,394.52,309.2,399.42Zm-119.64,0c-5.28-4.93-9.91-9.55-14.92-13.72-1-.84-4-.67-5.14.23a94.48,94.48,0,0,0-9.62,9.47,3.53,3.53,0,0,0-.48,3.24c3.71,6,10.4,7.1,16.33,9.4.44.17,1.22-.32,1.73-.66C181.23,405,185,402.49,189.56,399.46Zm85.26,40.91c-5.28-5.41-10-10.51-15-15.24-1.4-1.31-3.75-1.84-5.76-2.23-8.71-1.65-15.47,1.6-20.9,8.39-1.92,2.4-4.42,4.33-6.59,6.54a19.36,19.36,0,0,0-1.77,2.66c4.47.8,7.78.69,10.95-2.65,3.51-3.71,7.91-6.57,11.88-9.86,2-1.62,3.74-1.33,5.53.23,3.8,3.3,7.89,6.32,11.34,10C267.43,441.26,270.55,441.27,274.82,440.37Zm-38.54-33.13c4.08,3.76,7.1,6.95,10.57,9.52a5.47,5.47,0,0,0,5.14,0c3.55-2.61,6.65-5.83,9.95-8.84-3.43-3.74-6.57-7-9.46-10.41-2-2.42-3.57-2.09-5.64,0C243.67,400.71,240.23,403.63,236.28,407.24Zm96.94,3.86-.59-1c-4,1.51-9.08,2-11.86,4.76-5.26,5.25-9.2,11.81-13.7,17.82l1,1.47c4.74-2.25,10.42-3.53,14-7C326.7,422.73,329.6,416.54,333.22,411.1Zm54.64-21.81c-1.28-2.3-2.72-4.05-3.1-6-.15-.76,2.55-3.06,3.14-2.8,1.73.77,3.06,2.46,4.81,4l5.13-6.45c-1.92-1.55-3.66-2.89-5.32-4.32-2.46-2.12-4.92-2.37-7.06.27-3.68,4.55-7.2,9.23-10.77,13.84C384.62,395.57,383.27,394.9,387.86,389.29Zm-281.93-5.73c2.37-1.3,4.12-2.7,6.07-3.11.66-.13,2.83,2.51,2.58,3.41-.49,1.83-2.17,3.33-3.51,5.18,4.6,5.47,7.26,5.37,13.35-1.69-3.19-4-6.41-8.2-9.73-12.28-3-3.75-5.26-3.86-8.68-.6-4.41,4.21-4.41,4.21-.46,8.65C105.88,383.49,106.21,383.88,105.93,383.56Zm60.83,26.76c4.2,12.69,16,23,26.32,23.19-3.35-4.33-7-8.23-9.67-12.72C179.65,414.48,173.58,412.54,166.76,410.32Zm45.17,10.76L185,416.17l13.72,17.13Zm89.13,12.52c3.9-5.6,7.66-11,12.05-17.35l-25.57,5Zm81-64.4c-4.95.6-9.29.9-13.51,1.79a5,5,0,0,0-3,3.4,13.9,13.9,0,0,0,.46,6.81c.52,1.45,2.31,2.66,3.81,3.41.5.24,2.12-1.12,2.82-2.06C375.73,378.36,378.67,374.05,382.07,369.2Zm-265.33.08c3.5,4.76,6.57,9.13,9.88,13.31.81,1,3,2.29,3.54,1.92a8.65,8.65,0,0,0,3.36-4.21,8.46,8.46,0,0,0-.1-5.31c-.59-1.59-2-3.7-3.39-4C125.85,370,121.49,369.82,116.74,369.28Zm95.88,51.51-.39.85c3.19,3.62,6.32,7.3,9.65,10.78a2.91,2.91,0,0,0,2.86.05c3.06-2.64,5.91-5.51,9.69-9.12Zm74.12,1.3c-.16-.38-.33-.75-.5-1.12L266,423.26l10.53,10.49Zm-82.05-36.58-.35-1-21.25,1.17-.43,1c3.12,2.73,6.18,5.51,9.4,8.11.38.31,1.75-.14,2.35-.63C197.88,391.34,201.27,388.4,204.69,385.51Zm88.44-1.06c4.22,3.69,7.45,6.63,10.84,9.4.69.56,2.34.95,2.87.54,3.22-2.46,6.24-5.17,10.2-8.54ZM291,406.21l-12.22,10,.44.91,21.33-3.07Zm-70.63,10.7L209,405.2l-9.68,9.12Zm18.19,24.3h22.33l-10.62-9.36Zm-6-37.76L246,391.36c-5-1.9-7.43-1.38-10.51,2-1.22,1.34-2.45,2.66-3.65,4C228.56,401.07,228.7,401.6,232.57,403.45ZM252.66,391l13.74,12.79,3.64-3.48C265.08,395.12,262.27,387.69,252.66,391Zm-97.15.8,8.22-8.22-16-6.3-.71.56ZM232.6,389l-17-4.85-.7,1.31,10.29,11.8Zm118.6-11-.52-.63-15.51,6.43c2.86,2.71,5.42,5.13,8.35,7.92Zm-67.49,7.57-.63-1-16.63,4.54,7.52,7.94C277.34,393.09,280.52,389.32,283.71,385.56ZM287.46,429l-7.67,9.38.63,1.15,16.34-2.46Zm-84.27,7.8,15.75,2.75.53-1.08L212,428.93Zm-99-68.93L92,363.2l-.71,1.05,6.5,10.22Zm291,.27,6.35,6.23L408,363.58l-.8-.49Z" transform="translate(-68.17 -49.06)"/><path class="cls-1" d="M84.51,424.87c1.13-.61,2.24-1.71,3.38-1.73,7.6-.17,15.21-.19,22.81,0,1,0,2,1.5,3,2.3-1,.65-2,1.84-2.93,1.85-7.61.06-15.21-.06-22.81-.23a12.8,12.8,0,0,1-3.16-.89C84.7,425.73,84.61,425.3,84.51,424.87Z" transform="translate(-68.17 -49.06)"/><path class="cls-1" d="M401.51,423.05c3.74,0,7.48-.14,11.21.09.93.06,1.79,1.3,2.68,2-.92.68-1.82,1.92-2.75,1.94-7.34.16-14.68.19-22,0-1.21,0-2.39-1.33-3.59-2,1.21-.68,2.38-1.85,3.63-2,3.59-.26,7.22-.09,10.83-.09Z" transform="translate(-68.17 -49.06)"/><path class="cls-1" d="M146.81,437.9c-2.11,2.85-16.19,3.87-29.49,2.65-1.1-.1-2.11-1-3.17-1.57l.39-1.08Z" transform="translate(-68.17 -49.06)"/><path class="cls-1" d="M383.88,438.94c-1,.54-2,1.54-2.95,1.56q-12.39.18-24.77,0c-1.15,0-2.29-.95-3.43-1.46.1-.35.2-.71.31-1.06h30.38Z" transform="translate(-68.17 -49.06)"/><path class="cls-1" d="M94.66,411.12c-2.74.18-5.47.48-8.2.52-5.26.06-10.52.05-15.78-.15-.86,0-1.67-1.18-2.51-1.81.84-.51,1.68-1.45,2.53-1.46q10.6-.15,21.22.06c1,0,2,.84,3,1.29Z" transform="translate(-68.17 -49.06)"/><path class="cls-1" d="M422.08,408c2.45,0,4.91-.12,7.34.06.83.06,1.61.87,2.41,1.33-.63.66-1.24,1.87-1.91,1.9-5.52.27-11.05.38-16.58.36-.56,0-1.11-1.17-1.66-1.8.63-.54,1.23-1.51,1.89-1.55,2.83-.18,5.67-.08,8.51-.08Z" transform="translate(-68.17 -49.06)"/><path class="cls-1" d="M250.2,140.37c-8.53,5.68-19.81,6.29-23.5,18.68-2.24-4.92-3.46-8.91-5.71-12.18-2.38-3.45-5.74-6.21-8.74-9.34,2-2.65,4.15-2.36,6.36-1.33a30.3,30.3,0,0,1,3.61,2.27,9,9,0,0,0,10.17.44c3.81-2.14,7.82-3.91,12.42-6.18L223,114.58c1.62-2.73,3.77-2.12,6-1.31,8.6,3.12,17.28,6.06,25.8,9.4,4.82,1.89,8.75,1.47,12.85-1.9A19.41,19.41,0,0,1,286.6,117a6.22,6.22,0,0,1,1.2.76c-1.24,4-3.14,7.45-7.21,9.35-4.33,2-8.71,4-12.81,6.38a9.21,9.21,0,0,0-3.88,4.78c-2.54,8.37-4.61,16.88-7,25.3-.37,1.25-1.69,2.24-2.56,3.35-.58-1.24-1.55-2.45-1.68-3.74-.67-6.3-1.09-12.62-1.64-18.93C250.89,143.17,250.56,142.1,250.2,140.37Z" transform="translate(-68.17 -49.06)"/><path class="cls-1" d="M155.59,251.76a32,32,0,0,1-3.31-3.89c-9.83-16.21-10.64-32.76-1.55-49.55,13.4-24.76,34-40.64,60.67-49a11.56,11.56,0,0,1,4.78-.17c-11.9,5.36-22.23,13-32.52,20.67-11.47,8.57-21.37,18.54-28.58,31.16-7.36,12.9-8.26,36.68,1.42,49.8Z" transform="translate(-68.17 -49.06)"/><path class="cls-1" d="M330.54,219.55c3.39-3.47,6.65-7.08,10.19-10.4Q358.25,192.7,376,176.43c1.09-1,2.67-1.46,4-2.17l.72,1.22q-23.56,22.53-47.16,45c-.46.44-1.59.15-2.41.19Z" transform="translate(-68.17 -49.06)"/><path class="cls-1" d="M302.58,186.17c.09-1.21-.13-2.57.34-3.6q4.69-10.17,9.66-20.22c5.11-10.4,10.29-20.76,15.45-31.14a9.13,9.13,0,0,1,1.36-2.31,5.6,5.6,0,0,1,1.92-.84c.21.77.7,1.59.56,2.29a13.25,13.25,0,0,1-1.31,3.19q-12.44,25.32-24.9,50.61a16.2,16.2,0,0,1-1.71,2.31Z" transform="translate(-68.17 -49.06)"/><path class="cls-1" d="M167.52,127.69c4.06,2.66,13.7,23.61,12.24,26.09C176.31,151,167,131.52,167.52,127.69Z" transform="translate(-68.17 -49.06)"/><path class="cls-1" d="M121.4,174.37c5.63,5.42,11.29,10.82,16.85,16.32.57.57.57,1.73.84,2.61-1-.18-2.3,0-2.92-.6q-7.8-7.19-15.32-14.66c-.69-.68-.7-2-1-3.1Z" transform="translate(-68.17 -49.06)"/><path class="cls-1" d="M170.19,221.69c-.66.27-1.7,1-2,.77q-5.14-4.29-10-8.88c-.25-.23.11-1.41.49-1.91a1.63,1.63,0,0,1,1.6-.14c3.22,2.94,6.35,6,9.5,9C169.93,220.66,169.94,221,170.19,221.69Z" transform="translate(-68.17 -49.06)"/><path class="cls-1" d="M191.13,173.92c1.69,2.9,3.48,5.75,5,8.73.53,1,.42,2.35.6,3.54-.84-.18-2.14-.08-2.45-.59-1.81-2.93-3.45-6-5-9.08-.27-.58.35-1.59.56-2.4Z" transform="translate(-68.17 -49.06)"/><path class="cls-1" d="M175.57,191.5c4.53,3.71,5.88,7,4.2,9.74C175.29,197.94,173.62,194.29,175.57,191.5Z" transform="translate(-68.17 -49.06)"/><path class="cls-1" d="M305.42,256a21.62,21.62,0,0,1-7.8,15.9c-6.79,5.93-13,12.57-10.53,22.89,1.33,5.55-1.68,8.48-6,10.6-2.14,1-3,2.12-2.56,4.74a8.4,8.4,0,0,1-1.53,5.78,146.18,146.18,0,0,1-10.33,11.93c-3.15,3.31-7.37,4.29-11.75,3.87-1.12-.11-2.36-1.7-3.06-2.89-1.12-1.91-1.83-4.07-2.76-6.1-.26-.59-.87-1.05-1-1.64a54.08,54.08,0,0,0-6-14.91c-1-1.58.14-4.8,1-7,2.51-6.39,1-11.58-3.16-16.84-1.69-2.12-2-5.67-2.12-8.61-.17-3.18-1.38-4.17-4.29-5.62-6.6-3.29-12.48-.8-18.68.39-7.75,1.48-12.39-.93-15.87-7.86-.5-1-1.68-1.74-2-2.77-.83-2.57-1.8-5.22-1.87-7.86a27.87,27.87,0,0,1,1.25-9.49,28.38,28.38,0,0,1,5-9.27c3.11-3.63,6.75-6.72,8.13-11.58a4.87,4.87,0,0,1,2.31-2.94c7.75-3,15.2-7.13,24.09-5.71,5,.8,5.64,1.28,5.28,6.5a3.87,3.87,0,0,0,1.76,2.82c2.07,1.29,4.41,2.13,6.56,3.29,2.46,1.32,4.55,2.3,6.38-1.1.48-.88,2.77-1.27,4.12-1.09a60.65,60.65,0,0,1,10.54,2.16c4.21,1.34,5.45,5.43,7.25,9,2.66,5.21,5.27,10.47,8.2,15.54a30.73,30.73,0,0,0,5.32,6.56,7.58,7.58,0,0,0,4.53,2.13C298.79,256.84,301.87,256.28,305.42,256Z" transform="translate(-68.17 -49.06)"/><path class="cls-1" d="M226.85,326.28c-23.15-5.72-41.35-33.87-39.69-61.38C190,292,202.45,312.82,226.85,326.28Z" transform="translate(-68.17 -49.06)"/><path class="cls-1" d="M300.11,296.39c.86,9.34-3.55,18.92-10.37,22.28C290.11,309.74,291.61,301.69,300.11,296.39Z" transform="translate(-68.17 -49.06)"/><path class="cls-1" d="M331.68,398.16c-2.25,1.74-3.43,3.34-4.87,3.61-2.43.46-4.7-1-4.19-3.6a6.83,6.83,0,0,1,4-4.28C327.45,393.58,329.29,396.07,331.68,398.16Z" transform="translate(-68.17 -49.06)"/><path class="cls-1" d="M177.58,398.85c-1.5,1-2.93,2.66-4.51,2.82-2.63.28-3.73-1.85-3.69-4.31,0-2.25,1-4.53,3.49-4,1.8.41,3.23,2.43,4.82,3.74C177.65,397.7,177.62,398.28,177.58,398.85Z" transform="translate(-68.17 -49.06)"/><path class="cls-1" d="M255.21,406.86c-2.66,1.7-4.1,3.29-5.74,3.54a3.06,3.06,0,0,1-3.53-3.89,5.9,5.9,0,0,1,4.1-3.46C251.25,402.89,252.76,405,255.21,406.86Z" transform="translate(-68.17 -49.06)"/></svg>